{"title":"Elvenking - Two Tragedy Poets (2008 Digipack Ed.)[Eac Flac][Rock","uid":4724748,"size":357336108,"categoryP":"audio","categoryS":"flac","magnet":"?xt=urn:btih:073ea99f94d7f47352ad9035eac1c08cac8568e0&amp;dn=Elvenking+-+Two+Tragedy+Poets+%282008+Digipack+Ed.%29%5BEac+Flac%5D%5BRock&amp;tr=udp%3A%2F%2Ftracker.openbittorrent.com%3A80&amp;tr=udp%3A%2F%2Fopen.demonii.com%3A1337&amp;tr=udp%3A%2F%2Ftracker.coppersurfer.tk%3A6969&amp;tr=udp%3A%2F%2Fexodus.desync.com%3A6969","seeders":1,"leechers":0,"uploader":"Maste75","files":9,"time":1234696742,"description":"Exact Audio Copy V0.99 prebeta 4 from 23. January 2008\n\nEAC extraction logfile from 14. February 2009, 17:13\n\nElvenking / Two Tragedy Poets (...And A Caravan Of Weird Figures)\n\nUsed drive  : HL-DT-STDVDRAM GSA-H42L   Adapter: 1  ID: 0\n\nRead mode               : Secure\nUtilize accurate stream : Yes\nDefeat audio cache      : Yes\nMake use of C2 pointers : No\n\nRead offset correction                      : 667\nOverread into Lead-In and Lead-Out          : No\nFill up missing offset samples with silence : Yes\nDelete leading and trailing silent blocks   : No\nNull samples used in CRC calculations       : Yes\nUsed interface                              : Installed external ASPI interface\n\nUsed output format              : User Defined Encoder\nSelected bitrate                : 1024 kBit/s\nQuality                         : High\nAdd ID3 tag                     : No\nCommand line compressor         : C:ProgrammiExact Audio CopyFLACFLAC.EXE\nAdditional command line options :  -8 -V -T &quot;ARTIST=%a&quot; -T &quot;TITLE=%t&quot; -T &quot;ALBUM=%g&quot; -T &quot;DATE=%y&quot; -T &quot;TRACKNUMBER=%n&quot; -T &quot;GENRE=%m&quot; -T &quot;COMMENT=%e&quot; %s -o %d \n\n\nTOC of the extracted CD\n\n     Track |   Start  |  Length  | Start sector | End sector \n    ---------------------------------------------------------\n        1  |  0:00.00 |  1:16.19 |         0    |     5718   \n        2  |  1:16.19 |  3:09.32 |      5719    |    19925   \n        3  |  4:25.51 |  4:11.50 |     19926    |    38800   \n        4  |  8:37.26 |  3:30.14 |     38801    |    54564   \n        5  | 12:07.40 |  1:24.35 |     54565    |    60899   \n        6  | 13:32.00 |  4:11.61 |     60900    |    79785   \n        7  | 17:43.61 |  4:11.28 |     79786    |    98638   \n        8  | 21:55.14 |  4:21.08 |     98639    |   118221   \n        9  | 26:16.22 |  4:44.04 |    118222    |   139525   \n       10  | 31:00.26 |  3:30.50 |    139526    |   155325   \n       11  | 34:31.01 |  4:50.37 |    155326    |   177112   \n       12  | 39:21.38 |  3:49.02 |    177113    |   194289   \n       13  | 43:10.40 |  2:15.47 |    194290    |   204461   \n\n\nRange status and errors\n\nSelected range\n\n     Filename C:Documents and SettingsMaste75DocumentiDownloadsElvenking - Two Tragedy Poets ... And A Caravan Of Weird Figures (2008 Digipack Limited Edition)[Eac Flac][Rock City]Elvenking - Two Tragedy Poets (...And A Caravan Of Weird Figures).wav\n\n     Peak level 98.7 %\n     Range quality 100.0 %\n     Test CRC 7BE66844\n     Copy CRC 7BE66844\n     Copy OK\n\nNo errors occurred\n\n \nAccurateRip summary\n \nTrack  1  not present in database\nTrack  2  not present in database\nTrack  3  not present in database\nTrack  4  not present in database\nTrack  5  not present in database\nTrack  6  not present in database\nTrack  7  not present in database\nTrack  8  not present in database\nTrack  9  not present in database\nTrack 10  not present in database\nTrack 11  not present in database\nTrack 12  not present in database\nTrack 13  not present in database\n \nNone of the tracks are present in the AccurateRip database\n\nEnd of status report\n","torrent":{"xt":"urn:btih:073ea99f94d7f47352ad9035eac1c08cac8568e0","amp;dn":"Elvenking+-+Two+Tragedy+Poets+%282008+Digipack+Ed.%29%5BEac+Flac%5D%5BRock","amp;tr":["udp%3A%2F%2Ftracker.openbittorrent.com%3A80","udp%3A%2F%2Fopen.demonii.com%3A1337","udp%3A%2F%2Ftracker.coppersurfer.tk%3A6969","udp%3A%2F%2Fexodus.desync.com%3A6969"],"infoHash":"073ea99f94d7f47352ad9035eac1c08cac8568e0","infoHashBuffer":{"type":"Buffer","data":[7,62,169,159,148,215,244,115,82,173,144,53,234,193,192,140,172,133,104,224]},"announce":[],"urlList":[]}}